<svg width="543" height="543" viewBox="0 0 543 543" fill="none" xmlns="http://www.w3.org/2000/svg">
<rect width="543" height="543" fill="white"/>
<path fill-rule="evenodd" clip-rule="evenodd" d="M271.132 69C158.945 69 68 159.945 68 272.132C68 384.319 158.945 475.264 271.132 475.264C383.319 475.264 474.264 384.319 474.264 272.132C474.264 159.945 383.319 69 271.132 69ZM116.632 272.132C116.632 186.804 185.804 117.632 271.132 117.632C300.685 117.632 323.131 125.114 346.822 137.411L346.822 193.537L195.789 193.537L195.789 272.041H346.822L346.822 350.913H195.789L195.789 407.048C148.559 380.616 116.632 330.103 116.632 272.132Z" fill="black"/>
</svg>
