<svg width="543" height="543" viewBox="0 0 543 543" fill="none" xmlns="http://www.w3.org/2000/svg">
<g clip-path="url(#clip0_1_29)">
<circle cx="271.5" cy="271.5" r="239" transform="rotate(180 271.5 271.5)" fill="black" stroke="black" stroke-width="65"/>
<mask id="mask0_1_29" style="mask-type:alpha" maskUnits="userSpaceOnUse" x="65" y="65" width="413" height="413">
<circle cx="271.5" cy="271.5" r="206.5" transform="rotate(180 271.5 271.5)" fill="#D9D9D9"/>
<circle cx="271.5" cy="271.5" r="206.5" transform="rotate(180 271.5 271.5)" stroke="black"/>
</mask>
<g mask="url(#mask0_1_29)">
<path d="M170.799 376.796L372.665 376.796L372.665 271.378L170.799 271.378L170.799 166.452L372.665 166.452L372.666 66L194.5 22.5L14.9996 197.5L120.5 480.5L329.556 503.597L170.799 461.5L170.799 376.796Z" fill="white"/>
<path d="M170.799 376.796L372.665 376.796L372.665 271.378L170.799 271.378L170.799 166.452L372.665 166.452L372.666 66L194.5 22.5L14.9996 197.5L120.5 480.5L329.556 503.597L170.799 461.5L170.799 376.796Z" stroke="black"/>
</g>
</g>
<defs>
<clipPath id="clip0_1_29">
<rect width="543" height="543" fill="white"/>
</clipPath>
</defs>
</svg>
