<svg width="543" height="543" viewBox="0 0 543 543" fill="none" xmlns="http://www.w3.org/2000/svg">
<g clip-path="url(#clip0_11_42)">
<circle cx="271.5" cy="270.5" r="239" stroke="white" stroke-width="65"/>
<mask id="mask0_11_42" style="mask-type:alpha" maskUnits="userSpaceOnUse" x="65" y="64" width="414" height="413">
<circle cx="271.5" cy="270.5" r="206.5" fill="#D9D9D9"/>
<circle cx="271.5" cy="270.5" r="206.5" stroke="black"/>
</mask>
<g mask="url(#mask0_11_42)">
<path d="M372.201 165.204L170.335 165.204L170.335 270.622L372.201 270.622L372.201 375.548L170.335 375.548L170.334 476L348.5 519.5L528 344.5L422.501 61.5001L213.444 38.4028L372.201 80.5001L372.201 165.204Z" fill="white"/>
<path d="M372.201 165.204L170.335 165.204L170.335 270.622L372.201 270.622L372.201 375.548L170.335 375.548L170.334 476L348.5 519.5L528 344.5L422.501 61.5001L213.444 38.4028L372.201 80.5001L372.201 165.204Z" stroke="white"/>
</g>
</g>
<defs>
<clipPath id="clip0_11_42">
<rect width="543" height="543" fill="white"/>
</clipPath>
</defs>
</svg>
