<svg width="543" height="543" viewBox="0 0 543 543" fill="none" xmlns="http://www.w3.org/2000/svg">
<g clip-path="url(#clip0_1_29)">
<path fill-rule="evenodd" clip-rule="evenodd" d="M271.5 0C121.555 1.31086e-05 -1.31086e-05 121.555 0 271.5C1.31086e-05 421.445 121.555 543 271.5 543C421.445 543 543 421.445 543 271.5C543 121.555 421.445 -1.31086e-05 271.5 0ZM64.9999 271.5C64.9999 157.453 157.453 65 271.5 65C311 65 341 75 372.665 91.4364L372.665 166.453L170.799 166.453L170.799 271.378H372.665L372.665 376.796H170.799L170.799 451.824C107.673 416.496 64.9999 348.982 64.9999 271.5Z" fill="black"/>
</g>
<defs>
<clipPath id="clip0_1_29">
<rect width="543" height="543" fill="white"/>
</clipPath>
</defs>
</svg>
