<svg width="543" height="543" viewBox="0 0 543 543" fill="none" xmlns="http://www.w3.org/2000/svg">
<g clip-path="url(#clip0_11_42)">
<path fill-rule="evenodd" clip-rule="evenodd" d="M271.5 4.74706e-05C121.555 3.43619e-05 8.77084e-05 121.555 7.45997e-05 271.5C6.14911e-05 421.445 121.555 543 271.5 543C421.445 543 543 421.445 543 271.5C543 121.555 421.445 6.05792e-05 271.5 4.74706e-05ZM65 271.5C65 157.453 157.453 65.0001 271.5 65.0001C311 65.0001 341 75.0001 372.666 91.4365L372.665 166.453L170.799 166.453L170.799 271.378L372.665 271.378L372.665 376.796L170.799 376.796L170.799 451.824C107.673 416.496 65 348.982 65 271.5Z" fill="white"/>
</g>
<defs>
<clipPath id="clip0_11_42">
<rect width="543" height="543" fill="white"/>
</clipPath>
</defs>
</svg>
