<svg width="3684" height="544" viewBox="0 0 3684 544" fill="none" xmlns="http://www.w3.org/2000/svg">
<g clip-path="url(#clip0_11_32)">
<path d="M1124.89 544V196H1186.89V226H1195.89C1201.56 216.333 1210.39 207.833 1222.39 200.5C1234.39 192.833 1251.56 189 1273.89 189C1293.89 189 1312.39 194 1329.39 204C1346.39 213.667 1360.06 228 1370.39 247C1380.72 266 1385.89 289 1385.89 316V324C1385.89 351 1380.72 374 1370.39 393C1360.06 412 1346.39 426.5 1329.39 436.5C1312.39 446.167 1293.89 451 1273.89 451C1258.89 451 1246.22 449.167 1235.89 445.5C1225.89 442.167 1217.72 437.833 1211.39 432.5C1205.39 426.833 1200.56 421.167 1196.89 415.5H1187.89V544H1124.89ZM1254.89 396C1274.56 396 1290.72 389.833 1303.39 377.5C1316.39 364.833 1322.89 346.5 1322.89 322.5V317.5C1322.89 293.5 1316.39 275.333 1303.39 263C1290.39 250.333 1274.22 244 1254.89 244C1235.56 244 1219.39 250.333 1206.39 263C1193.39 275.333 1186.89 293.5 1186.89 317.5V322.5C1186.89 346.5 1193.39 364.833 1206.39 377.5C1219.39 389.833 1235.56 396 1254.89 396Z" fill="white"/>
<path d="M1541.74 451C1517.07 451 1495.24 445.833 1476.24 435.5C1457.57 424.833 1442.9 410 1432.24 391C1421.9 371.667 1416.74 349 1416.74 323V317C1416.74 291 1421.9 268.5 1432.24 249.5C1442.57 230.167 1457.07 215.333 1475.74 205C1494.4 194.333 1516.07 189 1540.74 189C1565.07 189 1586.24 194.5 1604.24 205.5C1622.24 216.167 1636.24 231.167 1646.24 250.5C1656.24 269.5 1661.24 291.667 1661.24 317V338.5H1480.74C1481.4 355.5 1487.74 369.333 1499.74 380C1511.74 390.667 1526.4 396 1543.74 396C1561.4 396 1574.4 392.167 1582.74 384.5C1591.07 376.833 1597.4 368.333 1601.74 359L1653.24 386C1648.57 394.667 1641.74 404.167 1632.74 414.5C1624.07 424.5 1612.4 433.167 1597.74 440.5C1583.07 447.5 1564.4 451 1541.74 451ZM1481.24 291.5H1597.24C1595.9 277.167 1590.07 265.667 1579.74 257C1569.74 248.333 1556.57 244 1540.24 244C1523.24 244 1509.74 248.333 1499.74 257C1489.74 265.667 1483.57 277.167 1481.24 291.5Z" fill="white"/>
<path d="M1702.31 444V196H1764.31V228.5H1773.31C1777.31 219.833 1784.81 211.667 1795.81 204C1806.81 196 1823.48 192 1845.81 192C1865.15 192 1881.98 196.5 1896.31 205.5C1910.98 214.167 1922.31 226.333 1930.31 242C1938.31 257.333 1942.31 275.333 1942.31 296V444H1879.31V301C1879.31 282.333 1874.65 268.333 1865.31 259C1856.31 249.667 1843.31 245 1826.31 245C1806.98 245 1791.98 251.5 1781.31 264.5C1770.65 277.167 1765.31 295 1765.31 318V444H1702.31Z" fill="white"/>
<path d="M2105.37 444V94H2301.5V161.5H2171.37V229H2301.5V297.5H2171.37V444H2105.37Z" fill="white"/>
<path d="M2339.46 444V196H2401.46V224H2410.46C2414.13 214 2420.13 206.667 2428.46 202C2437.13 197.333 2447.13 195 2458.46 195H2488.46V251H2457.46C2441.46 251 2428.29 255.333 2417.96 264C2407.63 272.333 2402.46 285.333 2402.46 303V444H2339.46Z" fill="white"/>
<path d="M2593.84 451C2576.18 451 2560.34 448 2546.34 442C2532.34 435.667 2521.18 426.667 2512.84 415C2504.84 403 2500.84 388.5 2500.84 371.5C2500.84 354.5 2504.84 340.333 2512.84 329C2521.18 317.333 2532.51 308.667 2546.84 303C2561.51 297 2578.18 294 2596.84 294H2664.84V280C2664.84 268.333 2661.18 258.833 2653.84 251.5C2646.51 243.833 2634.84 240 2618.84 240C2603.18 240 2591.51 243.667 2583.84 251C2576.18 258 2571.18 267.167 2568.84 278.5L2510.84 259C2514.84 246.333 2521.18 234.833 2529.84 224.5C2538.84 213.833 2550.68 205.333 2565.34 199C2580.34 192.333 2598.51 189 2619.84 189C2652.51 189 2678.34 197.167 2697.34 213.5C2716.34 229.833 2725.84 253.5 2725.84 284.5V377C2725.84 387 2730.51 392 2739.84 392H2759.84V444H2717.84C2705.51 444 2695.34 441 2687.34 435C2679.34 429 2675.34 421 2675.34 411V410.5H2665.84C2664.51 414.5 2661.51 419.833 2656.84 426.5C2652.18 432.833 2644.84 438.5 2634.84 443.5C2624.84 448.5 2611.18 451 2593.84 451ZM2604.84 400C2622.51 400 2636.84 395.167 2647.84 385.5C2659.18 375.5 2664.84 362.333 2664.84 346V341H2601.34C2589.68 341 2580.51 343.5 2573.84 348.5C2567.18 353.5 2563.84 360.5 2563.84 369.5C2563.84 378.5 2567.34 385.833 2574.34 391.5C2581.34 397.167 2591.51 400 2604.84 400Z" fill="white"/>
<path d="M2790.91 444V196H2852.91V223H2861.91C2866.24 214.667 2873.41 207.5 2883.41 201.5C2893.41 195.167 2906.57 192 2922.91 192C2940.57 192 2954.74 195.5 2965.41 202.5C2976.07 209.167 2984.24 218 2989.91 229H2998.91C3004.57 218.333 3012.57 209.5 3022.91 202.5C3033.24 195.5 3047.91 192 3066.91 192C3082.24 192 3096.07 195.333 3108.41 202C3121.07 208.333 3131.07 218.167 3138.41 231.5C3146.07 244.5 3149.91 261 3149.91 281V444H3086.91V285.5C3086.91 271.833 3083.41 261.667 3076.41 255C3069.41 248 3059.57 244.5 3046.91 244.5C3032.57 244.5 3021.41 249.167 3013.41 258.5C3005.74 267.5 3001.91 280.5 3001.91 297.5V444H2938.91V285.5C2938.91 271.833 2935.41 261.667 2928.41 255C2921.41 248 2911.57 244.5 2898.91 244.5C2884.57 244.5 2873.41 249.167 2865.41 258.5C2857.74 267.5 2853.91 280.5 2853.91 297.5V444H2790.91Z" fill="white"/>
<path d="M3315.66 451C3291 451 3269.16 445.833 3250.16 435.5C3231.5 424.833 3216.83 410 3206.16 391C3195.83 371.667 3190.66 349 3190.66 323V317C3190.66 291 3195.83 268.5 3206.16 249.5C3216.5 230.167 3231 215.333 3249.66 205C3268.33 194.333 3290 189 3314.66 189C3339 189 3360.16 194.5 3378.16 205.5C3396.16 216.167 3410.16 231.167 3420.16 250.5C3430.16 269.5 3435.16 291.667 3435.16 317V338.5H3254.66C3255.33 355.5 3261.66 369.333 3273.66 380C3285.66 390.667 3300.33 396 3317.66 396C3335.33 396 3348.33 392.167 3356.66 384.5C3365 376.833 3371.33 368.333 3375.66 359L3427.16 386C3422.5 394.667 3415.66 404.167 3406.66 414.5C3398 424.5 3386.33 433.167 3371.66 440.5C3357 447.5 3338.33 451 3315.66 451ZM3255.16 291.5H3371.16C3369.83 277.167 3364 265.667 3353.66 257C3343.66 248.333 3330.5 244 3314.16 244C3297.16 244 3283.66 248.333 3273.66 257C3263.66 265.667 3257.5 277.167 3255.16 291.5Z" fill="white"/>
<path d="M3579.24 451C3546.9 451 3520.4 444 3499.74 430C3479.07 416 3466.57 396 3462.24 370L3520.24 355C3522.57 366.667 3526.4 375.833 3531.74 382.5C3537.4 389.167 3544.24 394 3552.24 397C3560.57 399.667 3569.57 401 3579.24 401C3593.9 401 3604.74 398.5 3611.74 393.5C3618.74 388.167 3622.24 381.667 3622.24 374C3622.24 366.333 3618.9 360.5 3612.24 356.5C3605.57 352.167 3594.9 348.667 3580.24 346L3566.24 343.5C3548.9 340.167 3533.07 335.667 3518.74 330C3504.4 324 3492.9 315.833 3484.24 305.5C3475.57 295.167 3471.24 281.833 3471.24 265.5C3471.24 240.833 3480.24 222 3498.24 209C3516.24 195.667 3539.9 189 3569.24 189C3596.9 189 3619.9 195.167 3638.24 207.5C3656.57 219.833 3668.57 236 3674.24 256L3615.74 274C3613.07 261.333 3607.57 252.333 3599.24 247C3591.24 241.667 3581.24 239 3569.24 239C3557.24 239 3548.07 241.167 3541.74 245.5C3535.4 249.5 3532.24 255.167 3532.24 262.5C3532.24 270.5 3535.57 276.5 3542.24 280.5C3548.9 284.167 3557.9 287 3569.24 289L3583.24 291.5C3601.9 294.833 3618.74 299.333 3633.74 305C3649.07 310.333 3661.07 318.167 3669.74 328.5C3678.74 338.5 3683.24 352.167 3683.24 369.5C3683.24 395.5 3673.74 415.667 3654.74 430C3636.07 444 3610.9 451 3579.24 451Z" fill="white"/>
<path d="M1056.5 272.5C1056.5 353.686 990.686 419.5 909.5 419.5C828.314 419.5 762.5 353.686 762.5 272.5C762.5 191.314 828.314 125.5 909.5 125.5C990.686 125.5 1056.5 191.314 1056.5 272.5Z" stroke="white" stroke-width="65"/>
<path fill-rule="evenodd" clip-rule="evenodd" d="M271.5 0.000169541C121.555 0.000156432 -3.43619e-05 121.555 -4.74706e-05 271.5C-6.05792e-05 421.446 121.555 543 271.5 543C421.445 543 543 421.446 543 271.5C543 121.555 421.445 0.00018265 271.5 0.000169541ZM64.9999 271.5C64.9999 157.453 157.453 65.0002 271.5 65.0002C311 65.0002 341 75.0002 372.665 91.4366L372.665 166.453L170.799 166.453L170.799 271.378L372.665 271.378L372.665 376.796L170.799 376.796L170.799 451.824C107.673 416.497 64.9999 348.982 64.9999 271.5Z" fill="white"/>
</g>
<defs>
<clipPath id="clip0_11_32">
<rect width="3684" height="544" fill="white"/>
</clipPath>
</defs>
</svg>
