<svg width="3643" height="549" viewBox="0 0 3643 549" fill="none" xmlns="http://www.w3.org/2000/svg">
<g clip-path="url(#clip0_1_2)">
<path d="M1084.89 550V202H1146.89V232H1155.89C1161.56 222.333 1170.39 213.833 1182.39 206.5C1194.39 198.833 1211.56 195 1233.89 195C1253.89 195 1272.39 200 1289.39 210C1306.39 219.667 1320.06 234 1330.39 253C1340.72 272 1345.89 295 1345.89 322V330C1345.89 357 1340.72 380 1330.39 399C1320.06 418 1306.39 432.5 1289.39 442.5C1272.39 452.167 1253.89 457 1233.89 457C1218.89 457 1206.22 455.167 1195.89 451.5C1185.89 448.167 1177.72 443.833 1171.39 438.5C1165.39 432.833 1160.56 427.167 1156.89 421.5H1147.89V550H1084.89ZM1214.89 402C1234.56 402 1250.72 395.833 1263.39 383.5C1276.39 370.833 1282.89 352.5 1282.89 328.5V323.5C1282.89 299.5 1276.39 281.333 1263.39 269C1250.39 256.333 1234.22 250 1214.89 250C1195.56 250 1179.39 256.333 1166.39 269C1153.39 281.333 1146.89 299.5 1146.89 323.5V328.5C1146.89 352.5 1153.39 370.833 1166.39 383.5C1179.39 395.833 1195.56 402 1214.89 402Z" fill="black"/>
<path d="M1501.74 457C1477.07 457 1455.24 451.833 1436.24 441.5C1417.57 430.833 1402.9 416 1392.24 397C1381.9 377.667 1376.74 355 1376.74 329V323C1376.74 297 1381.9 274.5 1392.24 255.5C1402.57 236.167 1417.07 221.333 1435.74 211C1454.4 200.333 1476.07 195 1500.74 195C1525.07 195 1546.24 200.5 1564.24 211.5C1582.24 222.167 1596.24 237.167 1606.24 256.5C1616.24 275.5 1621.24 297.667 1621.24 323V344.5H1440.74C1441.4 361.5 1447.74 375.333 1459.74 386C1471.74 396.667 1486.4 402 1503.74 402C1521.4 402 1534.4 398.167 1542.74 390.5C1551.07 382.833 1557.4 374.333 1561.74 365L1613.24 392C1608.57 400.667 1601.74 410.167 1592.74 420.5C1584.07 430.5 1572.4 439.167 1557.74 446.5C1543.07 453.5 1524.4 457 1501.74 457ZM1441.24 297.5H1557.24C1555.9 283.167 1550.07 271.667 1539.74 263C1529.74 254.333 1516.57 250 1500.24 250C1483.24 250 1469.74 254.333 1459.74 263C1449.74 271.667 1443.57 283.167 1441.24 297.5Z" fill="black"/>
<path d="M1662.31 450V202H1724.31V234.5H1733.31C1737.31 225.833 1744.81 217.667 1755.81 210C1766.81 202 1783.48 198 1805.81 198C1825.15 198 1841.98 202.5 1856.31 211.5C1870.98 220.167 1882.31 232.333 1890.31 248C1898.31 263.333 1902.31 281.333 1902.31 302V450H1839.31V307C1839.31 288.333 1834.65 274.333 1825.31 265C1816.31 255.667 1803.31 251 1786.31 251C1766.98 251 1751.98 257.5 1741.31 270.5C1730.65 283.167 1725.31 301 1725.31 324V450H1662.31Z" fill="black"/>
<path d="M2065.37 450V100H2261.5V167.5H2131.37V235H2261.5V303.5H2131.37V450H2065.37Z" fill="black"/>
<path d="M2299.46 450V202H2361.46V230H2370.46C2374.13 220 2380.13 212.667 2388.46 208C2397.13 203.333 2407.13 201 2418.46 201H2448.46V257H2417.46C2401.46 257 2388.29 261.333 2377.96 270C2367.63 278.333 2362.46 291.333 2362.46 309V450H2299.46Z" fill="black"/>
<path d="M2553.84 457C2536.18 457 2520.34 454 2506.34 448C2492.34 441.667 2481.18 432.667 2472.84 421C2464.84 409 2460.84 394.5 2460.84 377.5C2460.84 360.5 2464.84 346.333 2472.84 335C2481.18 323.333 2492.51 314.667 2506.84 309C2521.51 303 2538.18 300 2556.84 300H2624.84V286C2624.84 274.333 2621.18 264.833 2613.84 257.5C2606.51 249.833 2594.84 246 2578.84 246C2563.18 246 2551.51 249.667 2543.84 257C2536.18 264 2531.18 273.167 2528.84 284.5L2470.84 265C2474.84 252.333 2481.18 240.833 2489.84 230.5C2498.84 219.833 2510.68 211.333 2525.34 205C2540.34 198.333 2558.51 195 2579.84 195C2612.51 195 2638.34 203.167 2657.34 219.5C2676.34 235.833 2685.84 259.5 2685.84 290.5V383C2685.84 393 2690.51 398 2699.84 398H2719.84V450H2677.84C2665.51 450 2655.34 447 2647.34 441C2639.34 435 2635.34 427 2635.34 417V416.5H2625.84C2624.51 420.5 2621.51 425.833 2616.84 432.5C2612.18 438.833 2604.84 444.5 2594.84 449.5C2584.84 454.5 2571.18 457 2553.84 457ZM2564.84 406C2582.51 406 2596.84 401.167 2607.84 391.5C2619.18 381.5 2624.84 368.333 2624.84 352V347H2561.34C2549.68 347 2540.51 349.5 2533.84 354.5C2527.18 359.5 2523.84 366.5 2523.84 375.5C2523.84 384.5 2527.34 391.833 2534.34 397.5C2541.34 403.167 2551.51 406 2564.84 406Z" fill="black"/>
<path d="M2750.91 450V202H2812.91V229H2821.91C2826.24 220.667 2833.41 213.5 2843.41 207.5C2853.41 201.167 2866.57 198 2882.91 198C2900.57 198 2914.74 201.5 2925.41 208.5C2936.07 215.167 2944.24 224 2949.91 235H2958.91C2964.57 224.333 2972.57 215.5 2982.91 208.5C2993.24 201.5 3007.91 198 3026.91 198C3042.24 198 3056.07 201.333 3068.41 208C3081.07 214.333 3091.07 224.167 3098.41 237.5C3106.07 250.5 3109.91 267 3109.91 287V450H3046.91V291.5C3046.91 277.833 3043.41 267.667 3036.41 261C3029.41 254 3019.57 250.5 3006.91 250.5C2992.57 250.5 2981.41 255.167 2973.41 264.5C2965.74 273.5 2961.91 286.5 2961.91 303.5V450H2898.91V291.5C2898.91 277.833 2895.41 267.667 2888.41 261C2881.41 254 2871.57 250.5 2858.91 250.5C2844.57 250.5 2833.41 255.167 2825.41 264.5C2817.74 273.5 2813.91 286.5 2813.91 303.5V450H2750.91Z" fill="black"/>
<path d="M3275.66 457C3251 457 3229.16 451.833 3210.16 441.5C3191.5 430.833 3176.83 416 3166.16 397C3155.83 377.667 3150.66 355 3150.66 329V323C3150.66 297 3155.83 274.5 3166.16 255.5C3176.5 236.167 3191 221.333 3209.66 211C3228.33 200.333 3250 195 3274.66 195C3299 195 3320.16 200.5 3338.16 211.5C3356.16 222.167 3370.16 237.167 3380.16 256.5C3390.16 275.5 3395.16 297.667 3395.16 323V344.5H3214.66C3215.33 361.5 3221.66 375.333 3233.66 386C3245.66 396.667 3260.33 402 3277.66 402C3295.33 402 3308.33 398.167 3316.66 390.5C3325 382.833 3331.33 374.333 3335.66 365L3387.16 392C3382.5 400.667 3375.66 410.167 3366.66 420.5C3358 430.5 3346.33 439.167 3331.66 446.5C3317 453.5 3298.33 457 3275.66 457ZM3215.16 297.5H3331.16C3329.83 283.167 3324 271.667 3313.66 263C3303.66 254.333 3290.5 250 3274.16 250C3257.16 250 3243.66 254.333 3233.66 263C3223.66 271.667 3217.5 283.167 3215.16 297.5Z" fill="black"/>
<path d="M3539.24 457C3506.91 457 3480.41 450 3459.74 436C3439.07 422 3426.57 402 3422.24 376L3480.24 361C3482.57 372.667 3486.41 381.833 3491.74 388.5C3497.41 395.167 3504.24 400 3512.24 403C3520.57 405.667 3529.57 407 3539.24 407C3553.91 407 3564.74 404.5 3571.74 399.5C3578.74 394.167 3582.24 387.667 3582.24 380C3582.24 372.333 3578.91 366.5 3572.24 362.5C3565.57 358.167 3554.91 354.667 3540.24 352L3526.24 349.5C3508.91 346.167 3493.07 341.667 3478.74 336C3464.41 330 3452.91 321.833 3444.24 311.5C3435.57 301.167 3431.24 287.833 3431.24 271.5C3431.24 246.833 3440.24 228 3458.24 215C3476.24 201.667 3499.91 195 3529.24 195C3556.91 195 3579.91 201.167 3598.24 213.5C3616.57 225.833 3628.57 242 3634.24 262L3575.74 280C3573.07 267.333 3567.57 258.333 3559.24 253C3551.24 247.667 3541.24 245 3529.24 245C3517.24 245 3508.07 247.167 3501.74 251.5C3495.41 255.5 3492.24 261.167 3492.24 268.5C3492.24 276.5 3495.57 282.5 3502.24 286.5C3508.91 290.167 3517.91 293 3529.24 295L3543.24 297.5C3561.91 300.833 3578.74 305.333 3593.74 311C3609.07 316.333 3621.07 324.167 3629.74 334.5C3638.74 344.5 3643.24 358.167 3643.24 375.5C3643.24 401.5 3633.74 421.667 3614.74 436C3596.07 450 3570.91 457 3539.24 457Z" fill="black"/>
<path d="M1016.5 278.5C1016.5 359.686 950.686 425.5 869.5 425.5C788.314 425.5 722.5 359.686 722.5 278.5C722.5 197.314 788.314 131.5 869.5 131.5C950.686 131.5 1016.5 197.314 1016.5 278.5Z" stroke="black" stroke-width="65"/>
<circle cx="272.5" cy="277.5" r="239" transform="rotate(180 272.5 277.5)" fill="black" stroke="black" stroke-width="65"/>
<mask id="mask0_1_2" style="mask-type:alpha" maskUnits="userSpaceOnUse" x="66" y="71" width="413" height="413">
<circle cx="272.5" cy="277.5" r="206.5" transform="rotate(180 272.5 277.5)" fill="#D9D9D9"/>
<circle cx="272.5" cy="277.5" r="206.5" transform="rotate(180 272.5 277.5)" stroke="black"/>
</mask>
<g mask="url(#mask0_1_2)">
<path d="M171.799 382.796L373.665 382.796L373.665 277.378L171.799 277.378L171.799 172.452L373.665 172.452L373.666 72L195.5 28.5L15.9996 203.5L121.5 486.5L330.556 509.597L171.799 467.5L171.799 382.796Z" fill="white"/>
<path d="M171.799 382.796L373.665 382.796L373.665 277.378L171.799 277.378L171.799 172.452L373.665 172.452L373.666 72L195.5 28.5L15.9996 203.5L121.5 486.5L330.556 509.597L171.799 467.5L171.799 382.796Z" stroke="black"/>
</g>
</g>
<defs>
<clipPath id="clip0_1_2">
<rect width="3643" height="549" fill="white"/>
</clipPath>
</defs>
</svg>
