<svg width="2954" height="451" viewBox="0 0 2954 451" fill="none" xmlns="http://www.w3.org/2000/svg">
<path d="M394.891 451V103H456.891V133H465.891C471.557 123.333 480.391 114.833 492.391 107.5C504.391 99.8333 521.557 96 543.891 96C563.891 96 582.391 101 599.391 111C616.391 120.667 630.057 135 640.391 154C650.724 173 655.891 196 655.891 223V231C655.891 258 650.724 281 640.391 300C630.057 319 616.391 333.5 599.391 343.5C582.391 353.167 563.891 358 543.891 358C528.891 358 516.224 356.167 505.891 352.5C495.891 349.167 487.724 344.833 481.391 339.5C475.391 333.833 470.557 328.167 466.891 322.5H457.891V451H394.891ZM524.891 303C544.557 303 560.724 296.833 573.391 284.5C586.391 271.833 592.891 253.5 592.891 229.5V224.5C592.891 200.5 586.391 182.333 573.391 170C560.391 157.333 544.224 151 524.891 151C505.557 151 489.391 157.333 476.391 170C463.391 182.333 456.891 200.5 456.891 224.5V229.5C456.891 253.5 463.391 271.833 476.391 284.5C489.391 296.833 505.557 303 524.891 303Z" fill="black"/>
<path d="M811.738 358C787.072 358 765.238 352.833 746.238 342.5C727.572 331.833 712.905 317 702.238 298C691.905 278.667 686.738 256 686.738 230V224C686.738 198 691.905 175.5 702.238 156.5C712.572 137.167 727.072 122.333 745.738 112C764.405 101.333 786.072 96 810.738 96C835.072 96 856.238 101.5 874.238 112.5C892.238 123.167 906.238 138.167 916.238 157.5C926.238 176.5 931.238 198.667 931.238 224V245.5H750.738C751.405 262.5 757.738 276.333 769.738 287C781.738 297.667 796.405 303 813.738 303C831.405 303 844.405 299.167 852.738 291.5C861.072 283.833 867.405 275.333 871.738 266L923.238 293C918.572 301.667 911.738 311.167 902.738 321.5C894.072 331.5 882.405 340.167 867.738 347.5C853.072 354.5 834.405 358 811.738 358ZM751.238 198.5H867.238C865.905 184.167 860.072 172.667 849.738 164C839.738 155.333 826.572 151 810.238 151C793.238 151 779.738 155.333 769.738 164C759.738 172.667 753.572 184.167 751.238 198.5Z" fill="black"/>
<path d="M972.312 351V103H1034.31V135.5H1043.31C1047.31 126.833 1054.81 118.667 1065.81 111C1076.81 103 1093.48 99 1115.81 99C1135.15 99 1151.98 103.5 1166.31 112.5C1180.98 121.167 1192.31 133.333 1200.31 149C1208.31 164.333 1212.31 182.333 1212.31 203V351H1149.31V208C1149.31 189.333 1144.65 175.333 1135.31 166C1126.31 156.667 1113.31 152 1096.31 152C1076.98 152 1061.98 158.5 1051.31 171.5C1040.65 184.167 1035.31 202 1035.31 225V351H972.312Z" fill="black"/>
<path d="M1375.37 351V1H1571.5V68.5H1441.37V136H1571.5V204.5H1441.37V351H1375.37Z" fill="black"/>
<path d="M1609.46 351V103H1671.46V131H1680.46C1684.13 121 1690.13 113.667 1698.46 109C1707.13 104.333 1717.13 102 1728.46 102H1758.46V158H1727.46C1711.46 158 1698.29 162.333 1687.96 171C1677.63 179.333 1672.46 192.333 1672.46 210V351H1609.46Z" fill="black"/>
<path d="M1863.84 358C1846.18 358 1830.34 355 1816.34 349C1802.34 342.667 1791.18 333.667 1782.84 322C1774.84 310 1770.84 295.5 1770.84 278.5C1770.84 261.5 1774.84 247.333 1782.84 236C1791.18 224.333 1802.51 215.667 1816.84 210C1831.51 204 1848.18 201 1866.84 201H1934.84V187C1934.84 175.333 1931.18 165.833 1923.84 158.5C1916.51 150.833 1904.84 147 1888.84 147C1873.18 147 1861.51 150.667 1853.84 158C1846.18 165 1841.18 174.167 1838.84 185.5L1780.84 166C1784.84 153.333 1791.18 141.833 1799.84 131.5C1808.84 120.833 1820.68 112.333 1835.34 106C1850.34 99.3333 1868.51 96 1889.84 96C1922.51 96 1948.34 104.167 1967.34 120.5C1986.34 136.833 1995.84 160.5 1995.84 191.5V284C1995.84 294 2000.51 299 2009.84 299H2029.84V351H1987.84C1975.51 351 1965.34 348 1957.34 342C1949.34 336 1945.34 328 1945.34 318V317.5H1935.84C1934.51 321.5 1931.51 326.833 1926.84 333.5C1922.18 339.833 1914.84 345.5 1904.84 350.5C1894.84 355.5 1881.18 358 1863.84 358ZM1874.84 307C1892.51 307 1906.84 302.167 1917.84 292.5C1929.18 282.5 1934.84 269.333 1934.84 253V248H1871.34C1859.68 248 1850.51 250.5 1843.84 255.5C1837.18 260.5 1833.84 267.5 1833.84 276.5C1833.84 285.5 1837.34 292.833 1844.34 298.5C1851.34 304.167 1861.51 307 1874.84 307Z" fill="black"/>
<path d="M2060.91 351V103H2122.91V130H2131.91C2136.24 121.667 2143.41 114.5 2153.41 108.5C2163.41 102.167 2176.57 99 2192.91 99C2210.57 99 2224.74 102.5 2235.41 109.5C2246.07 116.167 2254.24 125 2259.91 136H2268.91C2274.57 125.333 2282.57 116.5 2292.91 109.5C2303.24 102.5 2317.91 99 2336.91 99C2352.24 99 2366.07 102.333 2378.41 109C2391.07 115.333 2401.07 125.167 2408.41 138.5C2416.07 151.5 2419.91 168 2419.91 188V351H2356.91V192.5C2356.91 178.833 2353.41 168.667 2346.41 162C2339.41 155 2329.57 151.5 2316.91 151.5C2302.57 151.5 2291.41 156.167 2283.41 165.5C2275.74 174.5 2271.91 187.5 2271.91 204.5V351H2208.91V192.5C2208.91 178.833 2205.41 168.667 2198.41 162C2191.41 155 2181.57 151.5 2168.91 151.5C2154.57 151.5 2143.41 156.167 2135.41 165.5C2127.74 174.5 2123.91 187.5 2123.91 204.5V351H2060.91Z" fill="black"/>
<path d="M2585.66 358C2561 358 2539.16 352.833 2520.16 342.5C2501.5 331.833 2486.83 317 2476.16 298C2465.83 278.667 2460.66 256 2460.66 230V224C2460.66 198 2465.83 175.5 2476.16 156.5C2486.5 137.167 2501 122.333 2519.66 112C2538.33 101.333 2560 96 2584.66 96C2609 96 2630.16 101.5 2648.16 112.5C2666.16 123.167 2680.16 138.167 2690.16 157.5C2700.16 176.5 2705.16 198.667 2705.16 224V245.5H2524.66C2525.33 262.5 2531.66 276.333 2543.66 287C2555.66 297.667 2570.33 303 2587.66 303C2605.33 303 2618.33 299.167 2626.66 291.5C2635 283.833 2641.33 275.333 2645.66 266L2697.16 293C2692.5 301.667 2685.66 311.167 2676.66 321.5C2668 331.5 2656.33 340.167 2641.66 347.5C2627 354.5 2608.33 358 2585.66 358ZM2525.16 198.5H2641.16C2639.83 184.167 2634 172.667 2623.66 164C2613.66 155.333 2600.5 151 2584.16 151C2567.16 151 2553.66 155.333 2543.66 164C2533.66 172.667 2527.5 184.167 2525.16 198.5Z" fill="black"/>
<path d="M2849.24 358C2816.91 358 2790.41 351 2769.74 337C2749.07 323 2736.57 303 2732.24 277L2790.24 262C2792.57 273.667 2796.41 282.833 2801.74 289.5C2807.41 296.167 2814.24 301 2822.24 304C2830.57 306.667 2839.57 308 2849.24 308C2863.91 308 2874.74 305.5 2881.74 300.5C2888.74 295.167 2892.24 288.667 2892.24 281C2892.24 273.333 2888.91 267.5 2882.24 263.5C2875.57 259.167 2864.91 255.667 2850.24 253L2836.24 250.5C2818.91 247.167 2803.07 242.667 2788.74 237C2774.41 231 2762.91 222.833 2754.24 212.5C2745.57 202.167 2741.24 188.833 2741.24 172.5C2741.24 147.833 2750.24 129 2768.24 116C2786.24 102.667 2809.91 96 2839.24 96C2866.91 96 2889.91 102.167 2908.24 114.5C2926.57 126.833 2938.57 143 2944.24 163L2885.74 181C2883.07 168.333 2877.57 159.333 2869.24 154C2861.24 148.667 2851.24 146 2839.24 146C2827.24 146 2818.07 148.167 2811.74 152.5C2805.41 156.5 2802.24 162.167 2802.24 169.5C2802.24 177.5 2805.57 183.5 2812.24 187.5C2818.91 191.167 2827.91 194 2839.24 196L2853.24 198.5C2871.91 201.833 2888.74 206.333 2903.74 212C2919.07 217.333 2931.07 225.167 2939.74 235.5C2948.74 245.5 2953.24 259.167 2953.24 276.5C2953.24 302.5 2943.74 322.667 2924.74 337C2906.07 351 2880.91 358 2849.24 358Z" fill="black"/>
<path d="M326.5 179.5C326.5 260.686 260.686 326.5 179.5 326.5C98.3141 326.5 32.5 260.686 32.5 179.5C32.5 98.3141 98.3141 32.5 179.5 32.5C260.686 32.5 326.5 98.3141 326.5 179.5Z" stroke="black" stroke-width="65"/>
</svg>
